<?xml version="1.0" standalone="no"?>
<!DOCTYPE svg PUBLIC "-//W3C//DTD SVG 20010904//EN"
 "http://www.w3.org/TR/2001/REC-SVG-20010904/DTD/svg10.dtd">
<svg version="1.0" xmlns="http://www.w3.org/2000/svg"
 width="500.000000pt" height="500.000000pt" viewBox="0 0 500.000000 500.000000"
 preserveAspectRatio="xMidYMid meet">

<g transform="translate(0.000000,500.000000) scale(0.100000,-0.100000)"
fill="#ffffff" stroke="none">
<path d="M966 2993 c-3 -3 -6 -219 -6 -480 0 -414 2 -473 15 -473 12 0 15 13
15 60 l0 60 171 0 c98 0 178 4 190 10 18 10 19 24 19 275 l0 265 -75 0 -75 0
0 80 0 80 -115 0 -115 0 0 59 c0 56 -9 79 -24 64z m166 -295 c2 -15 10 -23 23
-23 30 0 33 -42 3 -47 -15 -2 -24 -11 -26 -25 -2 -15 -10 -23 -22 -23 -12 0
-20 8 -22 23 -2 14 -11 23 -26 25 -30 5 -27 47 3 47 13 0 21 8 23 23 2 14 10
22 22 22 12 0 20 -8 22 -22z m86 -199 c-3 -19 -9 -21 -86 -21 -89 0 -98 3 -89
27 5 12 24 15 92 15 82 0 86 -1 83 -21z m72 -99 c0 -19 -7 -20 -125 -20 -97 0
-125 3 -125 13 0 25 12 27 132 27 111 0 118 -1 118 -20z m-130 -100 c0 -18 -7
-20 -60 -20 -43 0 -60 4 -60 13 0 23 11 27 67 27 46 0 53 -2 53 -20z"/>
<path d="M780 2515 c0 -348 0 -355 20 -355 20 0 20 7 20 355 0 348 0 355 -20
355 -20 0 -20 -7 -20 -355z"/>
<path d="M870 2515 l0 -355 25 0 25 0 0 355 0 355 -25 0 -25 0 0 -355z"/>
<path d="M714 2520 c0 -184 2 -260 3 -167 2 92 2 242 0 335 -1 92 -3 16 -3
-168z"/>
<path d="M1699 2721 c-69 -22 -99 -61 -99 -126 0 -27 8 -44 28 -65 26 -26 112
-60 151 -60 9 0 31 -9 49 -20 78 -47 6 -133 -97 -115 -37 6 -75 31 -83 55 -2
7 -18 10 -36 8 l-32 -3 17 -34 c28 -54 64 -74 137 -79 117 -8 186 38 186 122
0 74 -30 99 -160 131 -73 19 -100 38 -100 70 0 38 36 60 97 60 47 0 58 -4 78
-27 23 -27 75 -39 75 -18 0 24 -26 62 -54 80 -36 22 -119 33 -157 21z"/>
<path d="M2107 2716 c-145 -52 -195 -240 -95 -360 101 -122 328 -93 363 47 7
25 5 27 -26 27 -27 -1 -38 -7 -54 -33 -26 -40 -59 -57 -116 -57 -92 0 -153 72
-146 173 6 93 62 151 146 151 56 0 95 -21 119 -65 13 -23 24 -29 50 -29 37 0
41 14 17 60 -41 79 -162 120 -258 86z"/>
<path d="M2578 2720 c-86 -26 -145 -100 -155 -192 -7 -72 11 -131 55 -180 46
-51 85 -68 160 -68 47 0 67 6 104 29 l47 30 3 -27 c2 -22 9 -28 36 -30 l32 -3
0 220 0 221 -35 0 c-32 0 -35 -2 -35 -31 l0 -31 -30 26 c-49 41 -120 55 -182
36z m141 -79 c69 -49 91 -143 52 -220 -73 -143 -281 -86 -281 77 0 105 76 179
170 166 19 -3 46 -13 59 -23z"/>
<path d="M3090 2714 c-19 -8 -45 -25 -57 -36 l-23 -21 0 31 c0 30 -2 32 -35
32 l-35 0 2 -217 3 -218 33 -3 32 -3 0 136 c0 150 9 187 55 223 34 27 119 30
153 6 44 -31 52 -63 52 -219 l0 -145 35 0 35 0 0 149 c0 84 -5 163 -11 182
-32 95 -145 144 -239 103z"/>
<path d="M4035 2711 c-22 -10 -46 -25 -54 -34 -20 -25 -31 -21 -31 13 0 27 -3
30 -30 30 l-30 0 0 -325 0 -325 30 0 30 0 0 135 c0 74 3 135 6 135 3 0 21 -12
41 -27 26 -20 50 -28 93 -31 141 -10 234 76 234 218 0 164 -151 274 -289 211z
m155 -70 c92 -67 85 -237 -13 -287 -21 -11 -47 -15 -85 -12 -48 4 -60 10 -88
41 -79 86 -60 216 39 267 49 24 106 21 147 -9z"/>
<path d="M3412 2551 c3 -154 5 -172 24 -198 38 -52 81 -73 146 -73 64 0 88 9
131 48 l27 26 0 -37 c0 -34 2 -37 30 -37 l30 0 0 220 0 220 -29 0 -29 0 -4
-142 c-3 -91 -9 -153 -18 -171 -29 -59 -117 -85 -180 -52 -52 27 -60 58 -60
220 l0 145 -36 0 -35 0 3 -169z"/>
</g>
</svg>
